<svg width="18" height="18" viewBox="0 0 18 18" fill="none" xmlns="http://www.w3.org/2000/svg">
<path d="M1.37915 1.25725C1.76968 0.866724 2.40284 0.866725 2.79337 1.25725L16.7428 15.2067C17.1333 15.5972 17.1333 16.2303 16.7428 16.6209L16.6206 16.743C16.2301 17.1335 15.5969 17.1335 15.2064 16.743L1.257 2.79361C0.866481 2.40309 0.86648 1.76992 1.257 1.3794L1.37915 1.25725Z" fill="white"/>
<path d="M16.6206 1.25725C16.2301 0.866724 15.5969 0.866725 15.2064 1.25725L1.25701 15.2067C0.866481 15.5972 0.86648 16.2303 1.257 16.6209L1.37915 16.743C1.76968 17.1335 2.40284 17.1335 2.79337 16.743L16.7428 2.79361C17.1333 2.40309 17.1333 1.76992 16.7428 1.3794L16.6206 1.25725Z" fill="white"/>
</svg>
